# xmcd CD database file
#
# Track frame offsets:
#	150
#	18595
#	32530
#	46250
#	60066
#	80092
#	96633
#
# Disc length: 1482 seconds
#
# Revision: 0
# Processed by: cddbd v1.5.1PL0 Copyright (c) Steve Scherf et al.
# Submitted via: CDex 1.40Beta9
#
DISCID=4f05c807
DTITLE=Steve Clawson - Southern Soul
DYEAR=2004
DGENRE=Country
TTITLE0=You Bring Me Back
TTITLE1=Unwind
TTITLE2=The First Time
TTITLE3=Golden Ring
TTITLE4=East Meets The West
TTITLE5=Lovesong Lullaby
TTITLE6=I Cry Alone
EXTD=YEAR: 2004 ID3G: 2
EXTT0=
EXTT1=
EXTT2=
EXTT3=
EXTT4=
EXTT5=
EXTT6=
PLAYORDER=
